<svg width="145" height="41" viewBox="0 0 145 41" fill="none" xmlns="http://www.w3.org/2000/svg">
<path d="M17.7711 23.1679C17.945 19.8227 19.4646 16.8755 21.757 14.7863C24.0051 12.7342 27.031 11.48 30.3326 11.48C33.6309 11.48 36.6569 12.7342 38.9066 14.7863C41.1974 16.8755 42.7169 19.8226 42.8925 23.1643C43.0664 26.6015 41.7848 29.7946 39.5367 32.1616C37.2443 34.5692 33.9837 36.08 30.3326 36.08C26.6815 36.08 23.4143 34.5692 21.1236 32.1616C18.8738 29.7946 17.5955 26.6016 17.7711 23.1679Z" fill="white"/>
<path d="M23.6819 22.6336C23.774 20.8495 24.5785 19.2776 25.7921 18.1634C26.9823 17.0689 28.5842 16.4 30.3321 16.4C32.0783 16.4 33.6803 17.0689 34.8713 18.1634C36.0841 19.2776 36.8885 20.8494 36.9815 22.6317C37.0736 24.4648 36.3951 26.1678 35.2049 27.4302C33.9913 28.7143 32.2651 29.52 30.3321 29.52C28.3992 29.52 26.6695 28.7143 25.4568 27.4302C24.2657 26.1678 23.589 24.4649 23.6819 22.6336Z" fill="#265787"/>
<path d="M14.502 26.4544C14.5129 27.1132 14.7099 28.3934 15.0056 29.3931C15.6269 31.5092 16.6808 33.4668 18.1472 35.1921C19.6521 36.9654 21.5052 38.3898 23.6456 39.4011C25.8954 40.4631 28.3331 41.0044 30.8651 41C33.3506 41.004 35.8091 40.4501 38.0805 39.3744C40.2209 38.3533 42.0723 36.9227 43.5747 35.1485C45.0403 33.4161 46.0925 31.4549 46.7155 29.3388C47.0287 28.2696 47.2266 27.1844 47.3059 26.0957C47.3836 25.0215 47.3508 23.9414 47.2082 22.8748C46.9322 20.7985 46.2496 18.8073 45.2048 17.0304C44.2374 15.3772 42.9997 13.9223 41.5504 12.735L41.5537 12.7323L26.7631 0.626041C26.7508 0.614764 26.738 0.604099 26.7247 0.59401C25.7543 -0.200079 24.1225 -0.197404 23.0552 0.598465C21.9762 1.40324 21.8526 2.73412 22.813 3.57361L22.8088 3.57807L28.9778 8.92569L10.1753 8.94708H10.1503C8.59611 8.94886 7.1021 10.0358 6.80647 11.4095C6.50249 12.8089 7.55807 13.9698 9.174 13.976L9.1715 13.9822L18.7018 13.9627L1.6956 27.8779L1.63045 27.9295C0.026209 29.2391 -0.492382 31.4166 0.518101 32.7947C1.54362 34.1959 3.72408 34.1986 5.34503 32.8027L14.6264 24.7051C14.6264 24.7051 14.4911 25.7983 14.502 26.4544ZM38.3519 30.1151C36.4395 32.192 33.7621 33.3698 30.8651 33.376C27.964 33.3814 25.2866 32.2143 23.3742 30.1409C22.4713 29.173 21.7742 28.0096 21.3299 26.7295C20.9135 25.5108 20.7533 24.2095 20.8605 22.9175C20.9616 21.6578 21.3108 20.4351 21.8852 19.329C22.463 18.2212 23.2353 17.2423 24.16 16.4455C26.019 14.8306 28.3857 13.9564 30.861 13.9529C33.3387 13.9493 35.7038 14.8155 37.5644 16.425C38.4874 17.2194 39.2588 18.1953 39.8367 19.2996C40.4124 20.4048 40.763 21.627 40.8656 22.8864C40.9706 24.1775 40.8098 25.4776 40.3946 26.6957C39.9517 27.9785 39.255 29.1447 38.3519 30.1151Z" fill="#EA7600"/>
<path d="M124.106 23.2978C124.248 21.5416 125.469 20.428 127.335 20.428C129.203 20.428 130.423 21.5416 130.565 23.2978H124.106ZM130.374 27.6338C129.896 28.9352 128.77 29.7056 127.24 29.7056C125.325 29.7056 124.036 28.3765 123.984 26.2771H134.994V25.6595C134.994 20.4004 132.217 17.4449 127.24 17.4449C122.408 17.4449 119.486 20.428 119.486 25.1064C119.486 29.8133 122.453 32.7917 127.24 32.7917C130.113 32.7917 132.34 31.6974 133.713 29.7737L130.374 27.6338ZM75.2526 23.3061C75.3983 21.5499 76.6197 20.4362 78.4869 20.4362C80.3517 20.4362 81.5722 21.5499 81.7154 23.3061H75.2526ZM81.5242 27.6421C81.0455 28.9472 79.9202 29.7176 78.3875 29.7176C76.4756 29.7176 75.183 28.3848 75.1325 26.2845H86.1405V25.6706C86.1405 20.4086 83.3641 17.4523 78.3875 17.4523C73.5526 17.4523 70.6363 20.4362 70.6363 25.1146C70.6363 29.8216 73.6023 32.8 78.3875 32.8C81.2592 32.8 83.4883 31.7093 84.8637 29.7829L81.5242 27.6421ZM65.6796 14.265H69.6501V32.3205H65.6796V14.265ZM87.1283 19.0621H91.1211V20.1371C92.5346 18.4602 94.2321 17.6125 96.1465 17.6125C98.3516 17.6125 100.021 18.4602 100.883 19.9033C101.602 21.0953 101.65 22.5338 101.65 24.4243V32.3205H97.6511V25.3825C97.6511 22.5035 97.1302 21.1744 94.8564 21.1744C92.5586 21.1744 91.1211 22.6958 91.1211 25.2499V32.3205H87.1283V19.0621ZM114.508 25.33C114.508 27.8013 113.023 29.4221 110.724 29.4221C108.424 29.4221 106.938 27.8565 106.938 25.3586C106.938 22.8238 108.404 21.2591 110.724 21.2591C113.023 21.2591 114.508 22.8514 114.508 25.33ZM114.508 19.6631C113.499 18.4601 112.038 17.8002 110.008 17.8002C105.628 17.8002 102.637 20.8026 102.637 25.3024C102.637 29.7139 105.607 32.8 109.936 32.8C111.921 32.8 113.378 32.2422 114.508 30.9914V32.3205H118.504V13.12L114.508 14.265V19.6631ZM56.6043 21.2591C58.9261 21.2591 60.386 22.8238 60.386 25.3586C60.386 27.8565 58.903 29.4221 56.6043 29.4221C54.3073 29.4221 52.8235 27.8013 52.8235 25.33C52.8235 22.8514 54.3073 21.2591 56.6043 21.2591ZM52.8235 14.265L48.8265 13.12V32.3205H52.8235V30.9914C53.948 32.2422 55.4078 32.8 57.3943 32.8C61.7257 32.8 64.6918 29.7139 64.6918 25.3024C64.6918 20.8026 61.7001 17.8002 57.3222 17.8002C55.2877 17.8002 53.8279 18.4601 52.8235 19.6631V14.265ZM135.979 32.3205V19.0621H139.975V19.8812C141.171 18.2797 142.437 17.4827 143.877 17.4827C144.163 17.4827 144.522 17.5342 145 17.5867V21.3668C144.615 21.3106 144.186 21.3106 143.731 21.3106C141.408 21.3106 139.975 23.0134 139.975 25.909V32.3205H135.979Z" fill="#265787"/>
</svg>
