<svg width="69" height="83" viewBox="0 0 69 83" fill="none" xmlns="http://www.w3.org/2000/svg">
<path d="M69 15L62.7139 76.1929L34.4578 83L6.27942 76.2025L0 15H69Z" fill="#264DE4"/>
<path d="M57.4766 73.5748L63 22H34V79L57.4766 73.5748Z" fill="#2965F1"/>
<path d="M14.5082 44.0118L15.2588 51.4285H34V44.0118H14.5082ZM34 29H13L13.7613 36.4169H34V29ZM34 70.9905V63.274L33.9633 63.2826L24.6362 61.0522L24.04 55.137H15.633L16.8063 66.7824L33.9615 71L34 70.9905Z" fill="#EBEBEB"/>
<path d="M17 0H27V3.61429H21.1818V7.22857H27V10.8429H17V0ZM29 0H39V3.14286H33.1818V3.77143H39V11H29V7.7H34.8182V7.07143H29V0ZM41 0H51V3.14286H45.1818V3.77143H51V11H41V7.7H46.8182V7.07143H41V0Z" fill="black"/>
<path d="M44.8145 51.4304L43.7951 61.0502L34 63.2831V71L52.0044 66.7856L52.1365 65.5325L54.2002 46.0048L54.4145 44.013L56 29H34V36.4175H46.3753L45.5761 44.013H34V51.4304H44.8145Z" fill="white"/>
</svg>
