<svg width="47" height="43" viewBox="0 0 47 43" fill="none" xmlns="http://www.w3.org/2000/svg">
<path d="M47 21.6314C47 9.68478 36.4786 0 23.5 0C10.5214 0 0 9.68478 0 21.6314C0 32.4282 8.59366 41.3773 19.8281 43V27.8842H13.8613V21.6314H19.8281V16.8657C19.8281 11.4444 23.3366 8.44976 28.7045 8.44976C31.2756 8.44976 33.9648 8.87225 33.9648 8.87225V14.1956H31.0016C28.0823 14.1956 27.1719 15.8631 27.1719 17.5738V21.6314H33.6895L32.6476 27.8842H27.1719V43C38.4063 41.3773 47 32.4283 47 21.6314Z" fill="#1877F2"/>
<path d="M31.755 27.5388L32.7397 21.2524H26.5799V17.1731C26.5799 15.453 27.4404 13.7767 30.1995 13.7767H33V8.42476C33 8.42476 30.4583 8 28.0282 8C22.9552 8 19.6393 11.0107 19.6393 16.4612V21.2524H14V27.5388H19.6393V42.7358C20.7873 42.9119 21.9476 43.0003 23.1096 43C24.2716 43.0003 25.4319 42.9119 26.5799 42.7358V27.5388H31.755Z" fill="white"/>
</svg>
