<svg width="69" height="83" viewBox="0 0 69 83" fill="none" xmlns="http://www.w3.org/2000/svg">
<path d="M69 16.3115L62.7139 76.3242L34.4578 83L6.27942 76.3336L0 16.3115H69Z" fill="#E44D26"/>
<path d="M34.5 77.8973L57.3324 72.5028L62.7042 21.2192H34.5V77.8973Z" fill="#F16529"/>
<path d="M22.2801 35.9422H34.5V28.5807H12.8398L13.0466 30.5557L15.1696 50.8419H34.5V43.4805H23.0695L22.2801 35.9422Z" fill="#EBEBEB"/>
<path d="M24.2269 54.5228H15.5556L16.7658 66.0813L34.4603 70.2675L34.5 70.2581V62.5991L34.4622 62.6076L24.8419 60.3939L24.2269 54.5228Z" fill="#EBEBEB"/>
<path d="M6.4198 0H10.8096V3.69609H14.8251V0H19.2151V11.1927H14.8253V7.44471H10.8097V11.1927H6.41999L6.4198 0Z" fill="black"/>
<path d="M24.9878 3.71166H21.1232V0H33.2442V3.71166H29.3779V11.1927H24.988L24.9878 3.71166Z" fill="black"/>
<path d="M35.1678 0H39.7452L42.5608 3.93277L45.3736 0H49.9527V11.1927H45.581V5.64497L42.5608 9.6246H42.4853L39.4631 5.64497V11.1927H35.1678V0Z" fill="black"/>
<path d="M52.1374 0H56.5285V7.49302H62.7018V11.1927H52.1374V0Z" fill="black"/>
<path d="M34.4702 50.8419H45.107L44.1043 60.3891L34.4702 62.6052V70.2639L52.1787 66.0813L52.3086 64.8376L54.3385 45.4572L54.5492 43.4805H34.4702V50.8419Z" fill="white"/>
<path d="M34.4702 35.9242V35.9422H55.3352L55.5085 34.2876L55.9021 30.5557L56.1087 28.5807H34.4702V35.9242Z" fill="white"/>
</svg>
