<svg width="41" height="40" viewBox="0 0 41 40" fill="none" xmlns="http://www.w3.org/2000/svg">
<path d="M20.5002 0C11.9448 0 9.44225 0.00849814 8.95552 0.0471261C7.19993 0.188504 6.10718 0.455037 4.91677 1.0275C3.99935 1.46709 3.27565 1.97698 2.56237 2.69159C1.26148 3.99413 0.473745 5.59719 0.188751 7.50232C0.0502564 8.42707 0.00942864 8.61634 0.00142319 13.3413C-0.00177899 14.9166 0.00142319 16.9893 0.00142319 19.7698C0.00142319 28.0222 0.0110297 30.4349 0.0518575 30.9039C0.193554 32.5533 0.461737 33.5908 1.02932 34.7257C2.11406 36.8982 4.18507 38.529 6.62433 39.1378C7.46891 39.3479 8.40234 39.4631 9.59996 39.5179C10.1075 39.5395 15.2806 39.5542 20.457 39.5542C25.6333 39.5542 30.8088 39.548 31.3043 39.5241C32.6917 39.4607 33.497 39.3564 34.3872 39.1347C36.8425 38.5229 38.8759 36.9167 39.9823 34.7134C40.5386 33.6055 40.8204 32.5286 40.9485 30.9657C40.9765 30.625 40.9877 25.1908 40.9877 19.7644C40.9877 14.3371 40.9749 8.91301 40.9477 8.57231C40.8188 6.98393 40.5362 5.91548 39.9622 4.78677C39.4907 3.86279 38.968 3.17213 38.2082 2.46678C36.8521 1.21678 35.1942 0.455809 33.2184 0.180779C32.2602 0.0478986 32.0697 0.00849814 27.1711 0H20.5002Z" fill="url(#paint0_radial_14_438)"/>
<path d="M20.5002 0C11.9448 0 9.44225 0.00849814 8.95552 0.0471261C7.19993 0.188504 6.10718 0.455037 4.91677 1.0275C3.99935 1.46709 3.27565 1.97698 2.56237 2.69159C1.26148 3.99413 0.473745 5.59719 0.188751 7.50232C0.0502564 8.42707 0.00942864 8.61634 0.00142319 13.3413C-0.00177899 14.9166 0.00142319 16.9893 0.00142319 19.7698C0.00142319 28.0222 0.0110297 30.4349 0.0518575 30.9039C0.193554 32.5533 0.461737 33.5908 1.02932 34.7257C2.11406 36.8982 4.18507 38.529 6.62433 39.1378C7.46891 39.3479 8.40234 39.4631 9.59996 39.5179C10.1075 39.5395 15.2806 39.5542 20.457 39.5542C25.6333 39.5542 30.8088 39.548 31.3043 39.5241C32.6917 39.4607 33.497 39.3564 34.3872 39.1347C36.8425 38.5229 38.8759 36.9167 39.9823 34.7134C40.5386 33.6055 40.8204 32.5286 40.9485 30.9657C40.9765 30.625 40.9877 25.1908 40.9877 19.7644C40.9877 14.3371 40.9749 8.91301 40.9477 8.57231C40.8188 6.98393 40.5362 5.91548 39.9622 4.78677C39.4907 3.86279 38.968 3.17213 38.2082 2.46678C36.8521 1.21678 35.1942 0.455809 33.2184 0.180779C32.2602 0.0478986 32.0697 0.00849814 27.1711 0H20.5002Z" fill="url(#paint1_radial_14_438)"/>
<path d="M20.5002 0C11.9448 0 9.44225 0.00849814 8.95552 0.0471261C7.19993 0.188504 6.10718 0.455037 4.91677 1.0275C3.99935 1.46709 3.27565 1.97698 2.56237 2.69159C1.26148 3.99413 0.473745 5.59719 0.188751 7.50232C0.0502564 8.42707 0.00942864 8.61634 0.00142319 13.3413C-0.00177899 14.9166 0.00142319 16.9893 0.00142319 19.7698C0.00142319 28.0222 0.0110297 30.4349 0.0518575 30.9039C0.193554 32.5533 0.461737 33.5908 1.02932 34.7257C2.11406 36.8982 4.18507 38.529 6.62433 39.1378C7.46891 39.3479 8.40234 39.4631 9.59996 39.5179C10.1075 39.5395 15.2806 39.5542 20.457 39.5542C25.6333 39.5542 30.8088 39.548 31.3043 39.5241C32.6917 39.4607 33.497 39.3564 34.3872 39.1347C36.8425 38.5229 38.8759 36.9167 39.9823 34.7134C40.5386 33.6055 40.8204 32.5286 40.9485 30.9657C40.9765 30.625 40.9877 25.1908 40.9877 19.7644C40.9877 14.3371 40.9749 8.91301 40.9477 8.57231C40.8188 6.98393 40.5362 5.91548 39.9622 4.78677C39.4907 3.86279 38.968 3.17213 38.2082 2.46678C36.8521 1.21678 35.1942 0.455809 33.2184 0.180779C32.2602 0.0478986 32.0697 0.00849814 27.1711 0H20.5002Z" fill="url(#paint2_radial_14_438)"/>
<path d="M20.5002 0C11.9448 0 9.44225 0.00849814 8.95552 0.0471261C7.19993 0.188504 6.10718 0.455037 4.91677 1.0275C3.99935 1.46709 3.27565 1.97698 2.56237 2.69159C1.26148 3.99413 0.473745 5.59719 0.188751 7.50232C0.0502564 8.42707 0.00942864 8.61634 0.00142319 13.3413C-0.00177899 14.9166 0.00142319 16.9893 0.00142319 19.7698C0.00142319 28.0222 0.0110297 30.4349 0.0518575 30.9039C0.193554 32.5533 0.461737 33.5908 1.02932 34.7257C2.11406 36.8982 4.18507 38.529 6.62433 39.1378C7.46891 39.3479 8.40234 39.4631 9.59996 39.5179C10.1075 39.5395 15.2806 39.5542 20.457 39.5542C25.6333 39.5542 30.8088 39.548 31.3043 39.5241C32.6917 39.4607 33.497 39.3564 34.3872 39.1347C36.8425 38.5229 38.8759 36.9167 39.9823 34.7134C40.5386 33.6055 40.8204 32.5286 40.9485 30.9657C40.9765 30.625 40.9877 25.1908 40.9877 19.7644C40.9877 14.3371 40.9749 8.91301 40.9477 8.57231C40.8188 6.98393 40.5362 5.91548 39.9622 4.78677C39.4907 3.86279 38.968 3.17213 38.2082 2.46678C36.8521 1.21678 35.1942 0.455809 33.2184 0.180779C32.2602 0.0478986 32.0697 0.00849814 27.1711 0H20.5002Z" fill="url(#paint3_radial_14_438)"/>
<path d="M20.5017 5.07886C16.3629 5.07886 15.8433 5.09663 14.2182 5.1677C12.5955 5.23955 11.4884 5.48677 10.5197 5.85064C9.51742 6.22611 8.66724 6.72827 7.82026 7.54486C6.97248 8.36146 6.45213 9.18192 6.06146 10.1476C5.68361 11.0824 5.42663 12.1509 5.35378 13.7145C5.28093 15.282 5.26172 15.7834 5.26172 19.7745C5.26172 23.7655 5.28013 24.2653 5.35378 25.8329C5.42823 27.3973 5.68521 28.465 6.06146 29.3998C6.45133 30.3662 6.97168 31.1859 7.81946 32.0033C8.66644 32.8207 9.51662 33.3244 10.5181 33.6998C11.4876 34.0629 12.5955 34.3109 14.2174 34.3828C15.8433 34.4538 16.3621 34.4716 20.5009 34.4716C24.6397 34.4716 25.1577 34.4538 26.7836 34.3828C28.4063 34.3109 29.515 34.0637 30.4845 33.6998C31.4868 33.3244 32.3354 32.8214 33.1823 32.0041C34.0301 31.1875 34.5505 30.367 34.9411 29.4013C35.3158 28.4665 35.5728 27.3981 35.6488 25.8344C35.7217 24.2669 35.7409 23.767 35.7409 19.776C35.7409 15.785 35.7217 15.2836 35.6488 13.7161C35.5728 12.1516 35.3158 11.084 34.9411 10.1492C34.5505 9.18269 34.0301 8.363 33.1823 7.54564C32.3346 6.72827 31.4868 6.22611 30.4837 5.85064C29.5118 5.48754 28.4039 5.23955 26.782 5.1677C25.1561 5.09663 24.6389 5.07886 20.4985 5.07886H20.5017ZM19.1352 7.72719C19.541 7.72642 19.9933 7.72719 20.5025 7.72719C24.5717 7.72719 25.0536 7.74109 26.6603 7.8114C28.1461 7.87706 28.9522 8.11656 29.4894 8.31742C30.2003 8.58396 30.7078 8.90225 31.241 9.41677C31.7742 9.9313 32.1048 10.4211 32.3818 11.1071C32.5907 11.6247 32.8389 12.4019 32.9069 13.835C32.9798 15.384 32.9958 15.8499 32.9958 19.7714C32.9958 23.6937 32.9798 24.1587 32.9069 25.7077C32.8389 27.1408 32.5907 27.918 32.3818 28.4356C32.1056 29.1217 31.775 29.6099 31.241 30.1237C30.7078 30.6382 30.2011 30.9565 29.4894 31.223C28.9531 31.4254 28.1461 31.6641 26.6603 31.729C25.0536 31.7993 24.5709 31.8148 20.5025 31.8148C16.4333 31.8148 15.9506 31.7993 14.3447 31.729C12.8589 31.6626 12.0527 31.4239 11.5148 31.2222C10.8039 30.9557 10.2955 30.6374 9.76238 30.1229C9.22922 29.6084 8.89859 29.1201 8.62161 28.4341C8.41266 27.9165 8.1645 27.1393 8.09645 25.7062C8.0236 24.1572 8.00919 23.6913 8.00919 19.7675C8.00919 15.8429 8.0236 15.3802 8.09645 13.8312C8.1645 12.3981 8.41266 11.6209 8.62161 11.1025C8.89779 10.4165 9.22842 9.92666 9.76238 9.41214C10.2955 8.89761 10.8039 8.57932 11.5148 8.31201C12.0519 8.1096 12.8589 7.87088 14.3447 7.80522C15.7505 7.74418 16.2956 7.72564 19.136 7.72255L19.1352 7.72719ZM28.6368 10.1677C27.6273 10.1677 26.8084 10.9565 26.8084 11.9307C26.8084 12.9041 27.6273 13.6944 28.6368 13.6944C29.6463 13.6944 30.4653 12.9049 30.4653 11.9307C30.4653 10.9565 29.6463 10.1669 28.6368 10.1677ZM20.5017 12.2281C16.1796 12.2281 12.6756 15.6073 12.6756 19.7752C12.6756 23.9432 16.1796 27.3208 20.5017 27.3208C24.8238 27.3208 28.3262 23.9432 28.3262 19.7752C28.3262 15.6073 24.8238 12.2281 20.5017 12.2281ZM20.5017 14.8764C23.3068 14.8764 25.582 17.0697 25.582 19.7752C25.582 22.4807 23.3076 24.674 20.5017 24.674C17.6958 24.674 15.4214 22.4807 15.4214 19.7752C15.4222 17.069 17.6966 14.8764 20.5017 14.8764Z" fill="white"/>
<defs>
<radialGradient id="paint0_radial_14_438" cx="0" cy="0" r="1" gradientTransform="matrix(-25.2058 6.86003 5.12155 17.5247 39.6645 18.5402)" gradientUnits="userSpaceOnUse">
<stop stop-color="#FF005F"/>
<stop offset="1" stop-color="#FC01D8"/>
</radialGradient>
<radialGradient id="paint1_radial_14_438" cx="0" cy="0" r="1" gradientUnits="userSpaceOnUse" gradientTransform="translate(10.887 42.6016) rotate(-90) scale(31.5736 34.7125)">
<stop stop-color="#FFCC00"/>
<stop offset="0.1242" stop-color="#FFCC00"/>
<stop offset="0.5672" stop-color="#FE4A05"/>
<stop offset="0.6942" stop-color="#FF0F3F"/>
<stop offset="1" stop-color="#FE0657" stop-opacity="0"/>
</radialGradient>
<radialGradient id="paint2_radial_14_438" cx="0" cy="0" r="1" gradientTransform="matrix(6.79108 -11.2919 -15.2334 -8.53211 21.5292 38.997)" gradientUnits="userSpaceOnUse">
<stop stop-color="#FFCC00"/>
<stop offset="1" stop-color="#FFCC00" stop-opacity="0"/>
</radialGradient>
<radialGradient id="paint3_radial_14_438" cx="0" cy="0" r="1" gradientTransform="matrix(-24.929 6.77411 2.39098 8.19659 5.5611 1.61196)" gradientUnits="userSpaceOnUse">
<stop stop-color="#780CFF"/>
<stop offset="1" stop-color="#820BFF" stop-opacity="0"/>
</radialGradient>
</defs>
</svg>
