<svg width="48" height="43" viewBox="0 0 48 43" fill="none" xmlns="http://www.w3.org/2000/svg">
<path d="M48 5.09024C46.2026 5.9681 44.2961 6.54425 42.3439 6.79953C44.3773 5.45607 45.9386 3.32866 46.6738 0.793877C44.7408 2.05828 42.6259 2.94918 40.4205 3.42808C38.6241 1.31844 36.0649 0 33.2323 0C27.7937 0 23.3843 4.86041 23.3843 10.8551C23.3843 11.706 23.4714 12.5344 23.6392 13.3291C15.4549 12.8763 8.19862 8.5547 3.34144 1.98707C2.49394 3.59033 2.00831 5.45525 2.00831 7.44438C2.00831 11.2106 3.747 14.5331 6.38925 16.4798C4.82539 16.4259 3.29593 15.9603 1.92863 15.1219C1.92813 15.1674 1.92794 15.2129 1.92806 15.2585C1.92806 20.518 5.32256 24.9056 9.82744 25.9028C8.37728 26.3375 6.85618 26.4011 5.38031 26.0888C6.63338 30.4015 10.2703 33.5398 14.5794 33.6277C11.2091 36.539 6.96281 38.2746 2.34919 38.2746C1.55419 38.2746 0.770438 38.2231 0 38.1229C4.35806 41.2029 9.53438 43 15.0956 43C33.2094 43 43.1145 26.4588 43.1145 12.114C43.1145 11.6432 43.105 11.175 43.086 10.7096C45.0138 9.1731 46.6778 7.27024 48 5.09024Z" fill="#55ACEE"/>
</svg>
